<?xml version="1.0" encoding="iso-8859-1"?>
<!-- Generator: Adobe Illustrator 19.0.0, SVG Export Plug-In . SVG Version: 6.00 Build 0)  -->
<svg version="1.1" id="Layer_1" xmlns="http://www.w3.org/2000/svg" xmlns:xlink="http://www.w3.org/1999/xlink" x="0px" y="0px"
	 viewBox="0 0 512.003 512.003" style="enable-background:new 0 0 512.003 512.003;" xml:space="preserve">
<polygon style="fill:#D7D5D9;" points="65.094,21.334 512,21.334 512,320.028 1.329,320.028 1.329,21.334 "/>
<path style="fill:#FF5023;" d="M255.336,75.815c52.394,0,94.867,42.473,94.867,94.867s-42.473,94.867-94.867,94.867
	s-94.867-42.473-94.867-94.867c0-36.1,20.164-67.491,49.843-83.523C210.313,87.158,233.28,75.815,255.336,75.815z"/>
<rect x="1.329" y="320.028" style="fill:#57545C;" width="510.675" height="43.118"/>
<path style="opacity:0.25;fill:#2F2D30;enable-background:new    ;" d="M465.439,21.334v212.499v4.178
	c0,26.81-21.734,48.544-48.544,48.544H0v33.473v43.119h510.672v-43.12V21.334H465.439z"/>
<polygon style="fill:#57545C;" points="200.461,393.22 205.636,361.839 305.535,361.839 322.833,461.835 188.338,461.835 
	192.919,435.902 "/>
<polygon style="fill:#FFFFFF;" points="231.556,119.564 303.412,170.682 231.556,221.798 "/>
<rect x="145.577" y="461.831" style="fill:#3E3B43;" width="223.691" height="28.837"/>
<g style="opacity:0.53;">
	<polygon style="fill:#2F2D30;" points="305.409,361.839 205.51,361.839 200.334,393.22 200.293,393.46 310.88,393.46 	"/>
</g>
<polygon style="opacity:0.37;fill:#FFFFFF;enable-background:new    ;" points="201.084,320.028 118.813,320.028 309.589,21.334 
	391.858,21.334 "/>
<g>
</g>
<g>
</g>
<g>
</g>
<g>
</g>
<g>
</g>
<g>
</g>
<g>
</g>
<g>
</g>
<g>
</g>
<g>
</g>
<g>
</g>
<g>
</g>
<g>
</g>
<g>
</g>
<g>
</g>
</svg>
